# xmcd
#
# Track frame offsets:
#	150
#	23885
#	35792
#	52065
#	62257
#	72238
#	85762
#	101863
#	115779
#	129353
#
# Disc length: 1938 seconds
#
# Revision: 0
# Processed by: cddbd v1.5PL3 Copyright (c) Steve Scherf et al.
# Submitted via: dBpowerAMP V4.0
#
DISCID=8507900a
DTITLE=Willie Nelson - On The Road Again
DYEAR=2000
DGENRE=Country
TTITLE0=Till I Gain Control
TTITLE1=End Of Understanding
TTITLE2=Stardust
TTITLE3=On The Road Again
TTITLE4=Broken Promises
TTITLE5=No Tommorow In Sight
TTITLE6=Always On My Mind
TTITLE7=Home Is where You're Happy
TTITLE8=Undo The Wrong
TTITLE9=Angel Flying Too Close
EXTD=
EXTT0=
EXTT1=
EXTT2=
EXTT3=
EXTT4=
EXTT5=
EXTT6=
EXTT7=
EXTT8=
EXTT9=
PLAYORDER=
